<svg width="18" height="18" viewBox="0 0 18 18" fill="none" xmlns="http://www.w3.org/2000/svg">
<path d="M5.625 1.5C6.02282 1.5 6.40436 1.65804 6.68566 1.93934C6.96696 2.22064 7.125 2.60218 7.125 3C7.125 3.39782 6.96696 3.77936 6.68566 4.06066C6.40436 4.34196 6.02282 4.5 5.625 4.5C5.22718 4.5 4.84564 4.34196 4.56434 4.06066C4.28304 3.77936 4.125 3.39782 4.125 3C4.125 2.60218 4.28304 2.22064 4.56434 1.93934C4.84564 1.65804 5.22718 1.5 5.625 1.5ZM4.5 16.5V12H2.25L4.2 6.3C4.425 5.7 4.95 5.25 5.625 5.25C6.3 5.25 6.9 5.7 7.05 6.3L9 12L10.95 6.3C11.175 5.7 11.7 5.25 12.375 5.25C13.05 5.25 13.65 5.7 13.8 6.3L15.75 12H13.5V16.5H11.25V12H6.75V16.5H4.5ZM12.375 1.5C12.7728 1.5 13.1544 1.65804 13.4357 1.93934C13.717 2.22064 13.875 2.60218 13.875 3C13.875 3.39782 13.717 3.77936 13.4357 4.06066C13.1544 4.34196 12.7728 4.5 12.375 4.5C11.9772 4.5 11.5956 4.34196 11.3143 4.06066C11.033 3.77936 10.875 3.39782 10.875 3C10.875 2.60218 11.033 2.22064 11.3143 1.93934C11.5956 1.65804 11.9772 1.5 12.375 1.5Z" fill="white"/>
</svg>
