<svg width="10" height="10" viewBox="0 0 10 10" fill="none" xmlns="http://www.w3.org/2000/svg">
<path d="M4.58313 5.83325V4.58325H5.41646V5.83325H7.4998C7.72992 5.83325 7.91646 6.01979 7.91646 6.24992V8.74992C7.91646 8.98004 7.72992 9.16658 7.4998 9.16658H2.49982C2.2697 9.16658 2.08315 8.98004 2.08315 8.74992V6.24992C2.08315 6.01979 2.2697 5.83325 2.49982 5.83325H4.58313ZM1.0459 3.68194C1.59739 2.02669 3.15924 0.833252 4.9998 0.833252C6.84042 0.833252 8.40226 2.02669 8.95376 3.68194L8.16296 3.94554C7.72176 2.62133 6.4723 1.66659 4.9998 1.66659C3.52735 1.66659 2.27788 2.62133 1.83668 3.94554L1.0459 3.68194ZM2.62747 4.20913C2.95836 3.21598 3.89547 2.49992 4.9998 2.49992C6.10417 2.49992 7.04126 3.21598 7.37217 4.20913L6.58138 4.47271C6.3608 3.81063 5.73605 3.33325 4.9998 3.33325C4.26359 3.33325 3.63885 3.81063 3.41825 4.47271L2.62747 4.20913ZM2.91649 6.66658V8.33325H7.08313V6.66658H2.91649Z" fill="white"/>
</svg>
